<svg width="17" height="16" viewBox="0 0 17 16" fill="none" xmlns="http://www.w3.org/2000/svg">
<path d="M13.1562 10V8.65625H11.8438V10H13.1562ZM13.1562 12.6562V11.3438H11.8438V12.6562H13.1562ZM10.5 4.65625V3.34375H9.15625V4.65625H10.5ZM10.5 7.34375V6H9.15625V7.34375H10.5ZM10.5 10V8.65625H9.15625V10H10.5ZM7.84375 4.65625V3.34375H6.5V4.65625H7.84375ZM7.84375 7.34375V6H6.5V7.34375H7.84375ZM7.84375 10V8.65625H6.5V10H7.84375ZM5.15625 7.34375V6H3.84375V7.34375H5.15625ZM5.15625 10V8.65625H3.84375V10H5.15625ZM5.15625 12.6562V11.3438H3.84375V12.6562H5.15625ZM11.8438 7.34375H14.5V14H9.15625V11.3438H7.84375V14H2.5V4.65625H5.15625V2H11.8438V7.34375Z" fill="black" fill-opacity="0.54"/>
</svg>
