<svg width="36" height="36" viewBox="0 0 36 36" fill="none" xmlns="http://www.w3.org/2000/svg">
<path d="M23.9766 19.4766C25.2891 19.4766 26.7188 19.6641 28.2656 20.0391C29.8125 20.4141 31.2422 21.0234 32.5547 21.8672C33.8672 22.7109 34.5234 23.6719 34.5234 24.75V28.4766H25.5234V24.75C25.5234 22.6875 24.5391 20.9531 22.5703 19.5469C22.8984 19.5 23.3672 19.4766 23.9766 19.4766ZM7.73438 20.0391C9.28125 19.6641 10.7109 19.4766 12.0234 19.4766C13.3359 19.4766 14.7656 19.6641 16.3125 20.0391C17.8594 20.4141 19.2656 21.0234 20.5312 21.8672C21.8438 22.7109 22.5 23.6719 22.5 24.75V28.4766H1.47656V24.75C1.47656 23.6719 2.13281 22.7109 3.44531 21.8672C4.75781 21.0234 6.1875 20.4141 7.73438 20.0391ZM15.1172 15.1875C14.2734 16.0781 13.2422 16.5234 12.0234 16.5234C10.8047 16.5234 9.75 16.0781 8.85938 15.1875C7.96875 14.2969 7.52344 13.2422 7.52344 12.0234C7.52344 10.8047 7.96875 9.75 8.85938 8.85938C9.75 7.96875 10.8047 7.52344 12.0234 7.52344C13.2422 7.52344 14.2734 7.96875 15.1172 8.85938C16.0078 9.75 16.4531 10.8047 16.4531 12.0234C16.4531 13.2422 16.0078 14.2969 15.1172 15.1875ZM27.1406 15.1875C26.25 16.0781 25.1953 16.5234 23.9766 16.5234C22.7578 16.5234 21.7031 16.0781 20.8125 15.1875C19.9219 14.2969 19.4766 13.2422 19.4766 12.0234C19.4766 10.8047 19.9219 9.75 20.8125 8.85938C21.7031 7.96875 22.7578 7.52344 23.9766 7.52344C25.1953 7.52344 26.25 7.96875 27.1406 8.85938C28.0312 9.75 28.4766 10.8047 28.4766 12.0234C28.4766 13.2422 28.0312 14.2969 27.1406 15.1875Z" fill="black" fill-opacity="0.54"/>
</svg>
